{
    "asset" : {
        "generator" : "Khronos glTF Blender I/O v1.6.16",
        "version" : "2.0"
    },
    "scene" : 0,
    "scenes" : [
        {
            "name" : "Scene",
            "nodes" : [
                0,
                1,
                2,
                3,
                4,
                5,
                6
            ]
        }
    ],
    "nodes" : [
        {
            "mesh" : 0,
            "name" : "Sphere"
        },
        {
            "mesh" : 1,
            "name" : "Sphere.001",
            "scale" : [
                0.868143618106842,
                0.868143618106842,
                0.868143618106842
            ],
            "translation" : [
                0,
                -0.053068287670612335,
                0
            ]
        },
        {
            "mesh" : 2,
            "name" : "Sphere.002"
        },
        {
            "mesh" : 3,
            "name" : "Sphere.003"
        },
        {
            "mesh" : 4,
            "name" : "Plane"
        },
        {
            "mesh" : 5,
            "name" : "Cylinder",
            "scale" : [
                0.8887797594070435,
                -0.0926365852355957,
                0.8887797594070435
            ],
            "translation" : [
                0.03842857480049133,
                -0.35000768303871155,
                -0.00863080844283104
            ]
        },
        {
            "mesh" : 6,
            "name" : "Sphere.004",
            "scale" : [
                -0.03845171630382538,
                0.03152560815215111,
                -0.03845171630382538
            ],
            "translation" : [
                0,
                -0.22569622099399567,
                0
            ]
        }
    ],
    "materials" : [
        {
            "doubleSided" : true,
            "name" : "plastic",
            "pbrMetallicRoughness" : {
                "baseColorFactor" : [
                    0.8000000715255737,
                    0.39262521266937256,
                    0.30672943592071533,
                    1
                ],
                "metallicFactor" : 0,
                "roughnessFactor" : 0.007352948188781738
            }
        },
        {
            "doubleSided" : true,
            "name" : "leather black",
            "pbrMetallicRoughness" : {
                "baseColorFactor" : [
                    0.014031538739800453,
                    0.006181016098707914,
                    0,
                    1
                ],
                "metallicFactor" : 0,
                "roughnessFactor" : 0.2941172122955322
            }
        },
        {
            "doubleSided" : true,
            "name" : "crome",
            "pbrMetallicRoughness" : {
                "baseColorFactor" : [
                    0,
                    0,
                    0,
                    1
                ],
                "metallicFactor" : 0,
                "roughnessFactor" : 0
            }
        }
    ],
    "meshes" : [
        {
            "name" : "Sphere",
            "primitives" : [
                {
                    "attributes" : {
                        "POSITION" : 0,
                        "NORMAL" : 1,
                        "TEXCOORD_0" : 2
                    },
                    "indices" : 3,
                    "material" : 0
                }
            ]
        },
        {
            "name" : "Sphere.001",
            "primitives" : [
                {
                    "attributes" : {
                        "POSITION" : 4,
                        "NORMAL" : 5,
                        "TEXCOORD_0" : 6
                    },
                    "indices" : 7,
                    "material" : 1
                }
            ]
        },
        {
            "name" : "Sphere.002",
            "primitives" : [
                {
                    "attributes" : {
                        "POSITION" : 8,
                        "NORMAL" : 9,
                        "TEXCOORD_0" : 10
                    },
                    "indices" : 11,
                    "material" : 2
                }
            ]
        },
        {
            "name" : "Sphere.003",
            "primitives" : [
                {
                    "attributes" : {
                        "POSITION" : 12,
                        "NORMAL" : 13,
                        "TEXCOORD_0" : 14
                    },
                    "indices" : 15,
                    "material" : 2
                }
            ]
        },
        {
            "name" : "Plane",
            "primitives" : [
                {
                    "attributes" : {
                        "POSITION" : 16,
                        "NORMAL" : 17,
                        "TEXCOORD_0" : 18
                    },
                    "indices" : 19,
                    "material" : 2
                },
                {
                    "attributes" : {
                        "POSITION" : 20,
                        "NORMAL" : 21,
                        "TEXCOORD_0" : 22
                    },
                    "indices" : 23,
                    "material" : 1
                }
            ]
        },
        {
            "name" : "Cylinder",
            "primitives" : [
                {
                    "attributes" : {
                        "POSITION" : 24,
                        "NORMAL" : 25,
                        "TEXCOORD_0" : 26
                    },
                    "indices" : 27,
                    "material" : 1
                }
            ]
        },
        {
            "name" : "Sphere.004",
            "primitives" : [
                {
                    "attributes" : {
                        "POSITION" : 28,
                        "NORMAL" : 29,
                        "TEXCOORD_0" : 30
                    },
                    "indices" : 31,
                    "material" : 1
                }
            ]
        }
    ],
    "accessors" : [
        {
            "bufferView" : 0,
            "componentType" : 5126,
            "count" : 6598,
            "max" : [
                0.9958956837654114,
                0.6358265280723572,
                0.997488260269165
            ],
            "min" : [
                -0.9971006512641907,
                -1.075548768043518,
                -0.9974879622459412
            ],
            "type" : "VEC3"
        },
        {
            "bufferView" : 1,
            "componentType" : 5126,
            "count" : 6598,
            "type" : "VEC3"
        },
        {
            "bufferView" : 2,
            "componentType" : 5126,
            "count" : 6598,
            "type" : "VEC2"
        },
        {
            "bufferView" : 3,
            "componentType" : 5123,
            "count" : 35328,
            "type" : "SCALAR"
        },
        {
            "bufferView" : 4,
            "componentType" : 5126,
            "count" : 14017,
            "max" : [
                1.1038089990615845,
                0.7700440287590027,
                1.0791007280349731
            ],
            "min" : [
                -1.0617530345916748,
                -0.5141264200210571,
                -1.0791007280349731
            ],
            "type" : "VEC3"
        },
        {
            "bufferView" : 5,
            "componentType" : 5126,
            "count" : 14017,
            "type" : "VEC3"
        },
        {
            "bufferView" : 6,
            "componentType" : 5126,
            "count" : 14017,
            "type" : "VEC2"
        },
        {
            "bufferView" : 7,
            "componentType" : 5123,
            "count" : 72960,
            "type" : "SCALAR"
        },
        {
            "bufferView" : 8,
            "componentType" : 5126,
            "count" : 2925,
            "max" : [
                0.9681907296180725,
                0.641265869140625,
                0.9681907296180725
            ],
            "min" : [
                -0.7797685861587524,
                -0.24052093923091888,
                -0.9681904911994934
            ],
            "type" : "VEC3"
        },
        {
            "bufferView" : 9,
            "componentType" : 5126,
            "count" : 2925,
            "type" : "VEC3"
        },
        {
            "bufferView" : 10,
            "componentType" : 5126,
            "count" : 2925,
            "type" : "VEC2"
        },
        {
            "bufferView" : 11,
            "componentType" : 5123,
            "count" : 16128,
            "type" : "SCALAR"
        },
        {
            "bufferView" : 12,
            "componentType" : 5126,
            "count" : 637,
            "max" : [
                -0.8861537575721741,
                0.24051380157470703,
                0.37519729137420654
            ],
            "min" : [
                -0.9681834578514099,
                -0.24051380157470703,
                -0.3751978278160095
            ],
            "type" : "VEC3"
        },
        {
            "bufferView" : 13,
            "componentType" : 5126,
            "count" : 637,
            "type" : "VEC3"
        },
        {
            "bufferView" : 14,
            "componentType" : 5126,
            "count" : 637,
            "type" : "VEC2"
        },
        {
            "bufferView" : 15,
            "componentType" : 5123,
            "count" : 3456,
            "type" : "SCALAR"
        },
        {
            "bufferView" : 16,
            "componentType" : 5126,
            "count" : 629,
            "max" : [
                0.729948878288269,
                -1.05092191696167,
                0.729948878288269
            ],
            "min" : [
                -0.729948878288269,
                -3.3947765827178955,
                -0.729948878288269
            ],
            "type" : "VEC3"
        },
        {
            "bufferView" : 17,
            "componentType" : 5126,
            "count" : 629,
            "type" : "VEC3"
        },
        {
            "bufferView" : 18,
            "componentType" : 5126,
            "count" : 629,
            "type" : "VEC2"
        },
        {
            "bufferView" : 19,
            "componentType" : 5123,
            "count" : 3456,
            "type" : "SCALAR"
        },
        {
            "bufferView" : 20,
            "componentType" : 5126,
            "count" : 221,
            "max" : [
                0.7897907495498657,
                -3.387476682662964,
                0.7897907495498657
            ],
            "min" : [
                -0.7897907495498657,
                -3.5122931003570557,
                -0.7897907495498657
            ],
            "type" : "VEC3"
        },
        {
            "bufferView" : 21,
            "componentType" : 5126,
            "count" : 221,
            "type" : "VEC3"
        },
        {
            "bufferView" : 22,
            "componentType" : 5126,
            "count" : 221,
            "type" : "VEC2"
        },
        {
            "bufferView" : 23,
            "componentType" : 5123,
            "count" : 1152,
            "type" : "SCALAR"
        },
        {
            "bufferView" : 24,
            "componentType" : 5126,
            "count" : 4570,
            "max" : [
                0.8869071006774902,
                0.9037032127380371,
                0.9038494825363159
            ],
            "min" : [
                -0.8868385553359985,
                -2.615011692047119,
                -0.9026080965995789
            ],
            "type" : "VEC3"
        },
        {
            "bufferView" : 25,
            "componentType" : 5126,
            "count" : 4570,
            "type" : "VEC3"
        },
        {
            "bufferView" : 26,
            "componentType" : 5126,
            "count" : 4570,
            "type" : "VEC2"
        },
        {
            "bufferView" : 27,
            "componentType" : 5123,
            "count" : 24960,
            "type" : "SCALAR"
        },
        {
            "bufferView" : 28,
            "componentType" : 5126,
            "count" : 134,
            "max" : [
                0.9749279618263245,
                1,
                0.9749280214309692
            ],
            "min" : [
                -0.9749278426170349,
                -1,
                -0.9749279022216797
            ],
            "type" : "VEC3"
        },
        {
            "bufferView" : 29,
            "componentType" : 5126,
            "count" : 134,
            "type" : "VEC3"
        },
        {
            "bufferView" : 30,
            "componentType" : 5126,
            "count" : 134,
            "type" : "VEC2"
        },
        {
            "bufferView" : 31,
            "componentType" : 5123,
            "count" : 576,
            "type" : "SCALAR"
        }
    ],
    "bufferViews" : [
        {
            "buffer" : 0,
            "byteLength" : 79176,
            "byteOffset" : 0
        },
        {
            "buffer" : 0,
            "byteLength" : 79176,
            "byteOffset" : 79176
        },
        {
            "buffer" : 0,
            "byteLength" : 52784,
            "byteOffset" : 158352
        },
        {
            "buffer" : 0,
            "byteLength" : 70656,
            "byteOffset" : 211136
        },
        {
            "buffer" : 0,
            "byteLength" : 168204,
            "byteOffset" : 281792
        },
        {
            "buffer" : 0,
            "byteLength" : 168204,
            "byteOffset" : 449996
        },
        {
            "buffer" : 0,
            "byteLength" : 112136,
            "byteOffset" : 618200
        },
        {
            "buffer" : 0,
            "byteLength" : 145920,
            "byteOffset" : 730336
        },
        {
            "buffer" : 0,
            "byteLength" : 35100,
            "byteOffset" : 876256
        },
        {
            "buffer" : 0,
            "byteLength" : 35100,
            "byteOffset" : 911356
        },
        {
            "buffer" : 0,
            "byteLength" : 23400,
            "byteOffset" : 946456
        },
        {
            "buffer" : 0,
            "byteLength" : 32256,
            "byteOffset" : 969856
        },
        {
            "buffer" : 0,
            "byteLength" : 7644,
            "byteOffset" : 1002112
        },
        {
            "buffer" : 0,
            "byteLength" : 7644,
            "byteOffset" : 1009756
        },
        {
            "buffer" : 0,
            "byteLength" : 5096,
            "byteOffset" : 1017400
        },
        {
            "buffer" : 0,
            "byteLength" : 6912,
            "byteOffset" : 1022496
        },
        {
            "buffer" : 0,
            "byteLength" : 7548,
            "byteOffset" : 1029408
        },
        {
            "buffer" : 0,
            "byteLength" : 7548,
            "byteOffset" : 1036956
        },
        {
            "buffer" : 0,
            "byteLength" : 5032,
            "byteOffset" : 1044504
        },
        {
            "buffer" : 0,
            "byteLength" : 6912,
            "byteOffset" : 1049536
        },
        {
            "buffer" : 0,
            "byteLength" : 2652,
            "byteOffset" : 1056448
        },
        {
            "buffer" : 0,
            "byteLength" : 2652,
            "byteOffset" : 1059100
        },
        {
            "buffer" : 0,
            "byteLength" : 1768,
            "byteOffset" : 1061752
        },
        {
            "buffer" : 0,
            "byteLength" : 2304,
            "byteOffset" : 1063520
        },
        {
            "buffer" : 0,
            "byteLength" : 54840,
            "byteOffset" : 1065824
        },
        {
            "buffer" : 0,
            "byteLength" : 54840,
            "byteOffset" : 1120664
        },
        {
            "buffer" : 0,
            "byteLength" : 36560,
            "byteOffset" : 1175504
        },
        {
            "buffer" : 0,
            "byteLength" : 49920,
            "byteOffset" : 1212064
        },
        {
            "buffer" : 0,
            "byteLength" : 1608,
            "byteOffset" : 1261984
        },
        {
            "buffer" : 0,
            "byteLength" : 1608,
            "byteOffset" : 1263592
        },
        {
            "buffer" : 0,
            "byteLength" : 1072,
            "byteOffset" : 1265200
        },
        {
            "buffer" : 0,
            "byteLength" : 1152,
            "byteOffset" : 1266272
        }
    ],
    "buffers" : [
        {
            "byteLength" : 1267424,
            "uri" : "data:application/octet-stream;base64,"
        }
    ]
}
