<svg viewBox="0 0 24 25" fill="none" xmlns="http://www.w3.org/2000/svg">
<path d="M12 2.12207C10.0222 2.12207 8.08879 2.70856 6.4443 3.80737C4.79981 4.90619 3.51809 6.46797 2.76121 8.29524C2.00433 10.1225 1.8063 12.1332 2.19215 14.073C2.578 16.0128 3.53041 17.7946 4.92894 19.1932C6.32746 20.5917 8.10929 21.5441 10.0491 21.93C11.9889 22.3158 13.9996 22.1178 15.8268 21.3609C17.6541 20.604 19.2159 19.3223 20.3147 17.6778C21.4135 16.0333 22 14.0999 22 12.1221C22 10.8089 21.7413 9.50849 21.2388 8.29524C20.7363 7.08198 19.9997 5.97959 19.0711 5.051C18.1425 4.12242 17.0401 3.38582 15.8268 2.88327C14.6136 2.38073 13.3132 2.12207 12 2.12207ZM12 20.1221C10.4178 20.1221 8.87104 19.6529 7.55544 18.7739C6.23985 17.8948 5.21447 16.6454 4.60897 15.1836C4.00347 13.7218 3.84504 12.1132 4.15372 10.5614C4.4624 9.0095 5.22433 7.58404 6.34315 6.46522C7.46197 5.3464 8.88743 4.58447 10.4393 4.27579C11.9911 3.96711 13.5997 4.12553 15.0615 4.73103C16.5233 5.33654 17.7727 6.36191 18.6518 7.67751C19.5308 8.9931 20 10.5398 20 12.1221C19.9976 14.2431 19.154 16.2765 17.6542 17.7763C16.1544 19.2761 14.121 20.1197 12 20.1221ZM11.3975 13.6743L8.8667 11.144C8.53475 10.8121 7.99659 10.8122 7.66481 11.1443V11.1443C7.33322 11.4761 7.33332 12.0139 7.66503 12.3457L11.3975 16.0786L16.5224 10.9541C16.8541 10.6223 16.8542 10.0845 16.5226 9.75261V9.75261C16.1909 9.42058 15.6528 9.42042 15.3208 9.75226L11.3975 13.6743Z" fill="currentColor"/>
</svg>