<svg viewBox="0 0 24 25" fill="none" xmlns="http://www.w3.org/2000/svg">
<path d="M16.1416 2.12207H7.8584L2 7.97997V16.2637L7.8584 22.1221H16.1416L22 16.2637V7.97997L16.1416 2.12207ZM20 15.4353L15.3132 20.1221H8.6868L4 15.4353V8.80837L8.6868 4.12207H15.3132L20 8.80837V15.4353ZM11.2422 13.6221H12.7578L13.1429 8.19282C13.1839 7.61413 12.7255 7.12207 12.1454 7.12207H11.8546C11.2745 7.12207 10.8161 7.61413 10.8571 8.19282L11.2422 13.6221ZM12 14.9721C11.7726 14.9721 11.5502 15.0395 11.3611 15.1659C11.172 15.2923 11.0246 15.4719 10.9375 15.682C10.8505 15.8921 10.8277 16.1234 10.8721 16.3465C10.9165 16.5695 11.026 16.7744 11.1868 16.9353C11.3477 17.0961 11.5526 17.2056 11.7756 17.25C11.9987 17.2944 12.23 17.2716 12.4401 17.1846C12.6502 17.0975 12.8298 16.9501 12.9562 16.761C13.0826 16.5719 13.15 16.3495 13.15 16.1221C13.15 15.8171 13.0288 15.5246 12.8132 15.3089C12.5975 15.0933 12.305 14.9721 12 14.9721Z" fill="currentColor"/>
</svg>
